
<svg width="89px" height="89px" viewBox="0 0 89 89" version="1.1" xmlns="http://www.w3.org/2000/svg" xmlns:xlink="http://www.w3.org/1999/xlink">
    <!-- Generator: Sketch 48.2 (47327) - http://www.bohemiancoding.com/sketch -->
    <desc>Created with Sketch.</desc>
    <defs>
        <polygon id="path-1" points="0 0 89 0 89 89 0 89"></polygon>
    </defs>
    <g id="Options-Round-2" stroke="none" stroke-width="1" fill="none" fill-rule="evenodd" opacity="0.1">
        <g id="Round-2:-Mobile-Portrait:-Get-Involved" transform="translate(-23.000000, -3552.000000)">
            <g id="Online-Engagement-Copy" transform="translate(-3.000000, 3304.000000)">
                <g id="Group-2" transform="translate(26.000000, 242.000000)">
                    <g id="Globe" transform="translate(0.000000, 6.000000)">
                        <mask id="mask-2" fill="white">
                            <use xlink:href="#path-1"></use>
                        </mask>
                        <g id="Clip-2"></g>
                        <path d="M74.3281864,73.396222 C70.3436938,77.5080319 65.6647566,80.6953082 60.422686,82.8686637 C58.2324348,83.7760474 55.9871677,84.4895857 53.6983032,85.0082392 C56.1563672,82.7662842 58.4509409,79.5847245 60.4444847,75.4625208 C62.0269672,72.1900149 63.3073819,68.5547634 64.2883238,64.6965636 C71.7014419,65.4818195 76.5677443,66.577332 79.2194015,67.3064611 C77.7967763,69.4621471 76.1649872,71.5014219 74.3281864,73.396222 Z M15.5910455,74.3290707 C13.3738053,72.1801407 11.427492,69.8274912 9.767157,67.3111384 C12.4172572,66.5804502 17.2877117,65.4823392 24.7127672,64.6965636 C25.7959555,68.9596041 27.2372654,72.9472074 29.0470772,76.4618902 C30.9253994,80.1090946 33.0429882,82.9575312 35.2944835,85.0123967 C27.9291149,83.350419 21.1331078,79.6995767 15.5910455,74.3290707 Z M14.6718666,15.6032583 C18.6558402,11.4909287 23.3342584,8.30417214 28.5747719,6.13133631 C30.7655422,5.22343289 33.0118472,4.50937491 35.3012307,3.99124113 C32.8431667,6.23267642 30.5485931,9.41371639 28.5555683,13.5369595 C26.9730858,16.8094654 25.6931901,20.4452366 24.7117292,24.3029167 C17.2996491,23.5187002 12.4333467,22.4231876 9.78117046,21.6930192 C11.2032767,19.5383726 12.8355848,17.4985781 14.6718666,15.6032583 Z M73.4084885,14.6724884 C75.6257286,16.820379 77.5715229,19.1735482 79.2313389,21.6893813 C76.5817577,22.4200695 71.7113033,23.5171411 64.2862477,24.3034364 C63.2035785,20.0414353 61.7627876,16.0543517 59.9529757,12.5401886 C58.0741346,8.89194476 55.9565457,6.04350822 53.7040124,3.98864267 C61.0699001,5.65010073 67.8653881,9.30198242 73.4084885,14.6724884 Z M66.6856628,43.0165367 C66.5969109,37.6288809 66.0270303,32.271887 64.9692739,27.2293072 C73.1697407,26.3489475 78.2830951,25.0918105 80.8340631,24.3289013 C83.9912428,29.9987504 85.7745848,36.3660273 86.0081424,43.0165367 L66.6856628,43.0165367 Z M66.6908529,45.9839829 L86.0096994,45.9839829 C85.779256,52.6147441 83.9938379,58.9830603 80.8236827,64.6679805 C78.2680436,63.9045517 73.1546892,62.6489738 64.9620077,61.7701731 C66.0223592,56.719798 66.601582,51.3648828 66.6908529,45.9839829 Z M45.9815602,60.775481 L45.9815602,45.9839829 L63.7277855,45.9839829 C63.6379956,51.4028204 63.0452783,56.6371668 62.0025734,61.4817436 C57.4902406,61.0862573 52.1729126,60.8134186 45.9815602,60.775481 Z M45.9815602,85.8927564 L45.9815602,63.7434469 C51.8729209,63.7808648 56.9649955,64.0375931 61.3055337,64.4112522 C60.3775315,67.944644 59.1978062,71.2317013 57.7772569,74.1690053 C54.5090076,80.9281306 50.279539,85.1002248 45.9815602,85.8927564 Z M43.0179738,63.7434469 L43.0179738,85.8979533 C41.3752853,85.6027678 39.7409012,84.8164725 38.1428482,83.5463432 C35.7688649,81.6588187 33.5952222,78.8181776 31.6810879,75.101854 C30.054489,71.9436805 28.7190586,68.3338939 27.6908861,64.4112522 C32.0324624,64.0386324 37.1250561,63.7808648 43.0179738,63.7434469 Z M25.2784956,45.9839829 L43.0179738,45.9839829 L43.0179738,60.775481 C36.8224692,60.8134186 31.5020271,61.086777 26.9881373,61.482783 C25.9506225,56.6511985 25.3698426,51.4126945 25.2784956,45.9839829 Z M22.3138712,45.9839829 C22.4026231,51.3705994 22.9725036,56.728113 24.029741,61.7712125 C15.8287552,62.6510525 10.7154008,63.9087092 8.16495187,64.672138 C5.00777216,59.0017693 3.22494916,52.6339727 2.99191058,45.9839829 L22.3138712,45.9839829 Z M22.308681,43.0165367 L2.99035353,43.0165367 C3.22131604,36.3852559 5.00673413,30.0169397 8.17688926,24.3320195 C10.7325284,25.0954483 15.8448447,26.3510262 24.0385643,27.2298269 C22.9782128,32.280202 22.39899,37.6345975 22.308681,43.0165367 Z M43.0179738,28.224519 L43.0179738,43.0165367 L25.2717484,43.0165367 C25.3620574,37.5976993 25.9552937,32.3623135 26.9974796,27.5182564 C31.5092934,27.9127033 36.8276594,28.1865814 43.0179738,28.224519 Z M43.0179738,3.10724358 L43.0179738,25.2565531 C37.1266131,25.2191352 32.0355765,24.9618872 27.6945192,24.5892675 C28.6230405,21.0548364 29.8022468,17.767779 31.222796,14.8299553 C34.4910454,8.07031036 38.721033,3.89821611 43.0179738,3.10724358 Z M45.9815602,25.2565531 L45.9815602,3.10256635 C47.6242486,3.39827158 49.2581138,4.18456687 50.8561668,5.45469621 C53.230669,7.34170097 55.4048308,10.1828618 57.318446,13.8997051 C58.9445259,17.0578786 60.2804754,20.6676652 61.3086478,24.5887478 C56.9670716,24.9618872 51.8744779,25.2191352 45.9815602,25.2565531 Z M45.9815602,28.224519 C52.1770647,28.1865814 57.4980259,27.9127033 62.0124347,27.5177367 C63.0489115,32.3488015 63.6302104,37.5867858 63.7215573,43.0165367 L45.9815602,43.0165367 L45.9815602,28.224519 Z M75.4695045,12.5401886 C66.8289114,4.1679367 55.6617441,0 44.5111854,0 L44.5075522,0 L44.5054762,0 L44.499767,0 C32.8769028,0.00259846428 21.2716853,4.52912324 12.5444164,13.5369595 C-4.55874707,31.1878077 -4.11810174,59.3613967 13.5300294,76.4618902 C22.1701035,84.8341421 33.3341567,89 44.4852345,89 L44.4904247,89 L44.4925007,89 C44.4956148,89 44.4976909,88.9994803 44.499767,88.9994803 C56.1210741,88.9963622 67.7278487,84.4693177 76.4556366,75.4625208 C93.5593191,57.8132317 93.1176357,29.6401623 75.4695045,12.5401886 Z" id="Fill-1" fill="#FFFFFF" mask="url(#mask-2)"></path>
                    </g>
                </g>
            </g>
        </g>
    </g>
</svg>