
<svg width="129px" height="91px" viewBox="0 0 129 91" version="1.1" xmlns="http://www.w3.org/2000/svg" xmlns:xlink="http://www.w3.org/1999/xlink">
    <!-- Generator: Sketch 48.2 (47327) - http://www.bohemiancoding.com/sketch -->
    <desc>Created with Sketch.</desc>
    <defs></defs>
    <g id="Options-Round-2" stroke="none" stroke-width="1" fill="none" fill-rule="evenodd">
        <g id="Round-2:-Desktop-HD:-Get-Involved" transform="translate(-246.000000, -878.000000)" fill="#015985">
            <g id="Making-a-Gift" transform="translate(135.000000, 788.000000)">
                <g id="Reason-1" transform="translate(0.000000, 81.000000)">
                    <g id="Page-1" transform="translate(111.000000, 0.000000)">
                        <path d="M41.4148386,89 L14.5891053,89 C7.51984225,89 1.56174513,93.7147177 0,100 L56,100 C54.4372689,93.7147177 48.4786788,89 41.4148386,89" id="Fill-1"></path>
                        <path d="M129.967007,51.9181069 L88.7976768,51.9181069 L88.7976768,55.325277 L64.0677657,55.325277 L64.0677657,47.74538 L65.6784446,47.74538 C68.3087913,47.74538 70.4500934,45.6236378 70.4500934,43.0070845 L70.4500934,40.6411307 C70.4500934,38.0191722 68.3087913,35.9023438 65.6784446,35.9023438 L33.7648262,35.9023438 C31.1344796,35.9023438 28.9921875,38.0191722 28.9921875,40.6411307 L28.9921875,43.0070845 C28.9921875,45.6236378 31.1344796,47.74538 33.7648262,47.74538 L36.1541155,47.74538 L36.1541155,74.061273 L33.7648262,74.061273 C31.1344796,74.061273 28.9921875,76.1756446 28.9921875,78.7931807 L28.9921875,81.1689619 C28.9921875,83.786498 31.1344796,85.9023438 33.7648262,85.9023438 L65.6784446,85.9023438 C68.3087913,85.9023438 70.4500934,83.786498 70.4500934,81.1689619 L70.4500934,78.7931807 C70.4500934,76.1756446 68.3087913,74.061273 65.6784446,74.061273 L64.0677657,74.061273 L64.0677657,66.4764622 L88.7976768,66.4764622 L88.7976768,69.8767531 L129.967007,69.8767531 C134.380782,69.8767531 137.992188,65.8435757 137.992188,60.8969387 C137.992188,55.9561981 134.380782,51.9181069 129.967007,51.9181069" id="Fill-3" transform="translate(83.492188, 60.902344) rotate(38.000000) translate(-83.492188, -60.902344) "></path>
                    </g>
                </g>
            </g>
        </g>
    </g>
</svg>