
<svg width="71px" height="111px" viewBox="0 0 71 111" version="1.1" xmlns="http://www.w3.org/2000/svg" xmlns:xlink="http://www.w3.org/1999/xlink">
    <!-- Generator: Sketch 48.2 (47327) - http://www.bohemiancoding.com/sketch -->
    <desc>Created with Sketch.</desc>
    <defs>
        <polygon id="path-1" points="0 0 71 0 71 111 0 111"></polygon>
    </defs>
    <g id="Options-Round-2" stroke="none" stroke-width="1" fill="none" fill-rule="evenodd">
        <g id="Round-2:-Desktop-HD:-Get-Involved" transform="translate(-685.000000, -866.000000)">
            <g id="Making-a-Gift" transform="translate(135.000000, 788.000000)">
                <g id="Reason-2" transform="translate(401.000000, 78.000000)">
                    <g id="Page-1" transform="translate(149.000000, 0.000000)">
                        <mask id="mask-2" fill="white">
                            <use xlink:href="#path-1"></use>
                        </mask>
                        <g id="Clip-2"></g>
                        <path d="M11.6725016,101.550549 C8.1620871,100.246018 5.33753719,98.0661276 3.20141264,95.0006706 C1.06656848,91.9318108 0,88.4984308 0,84.6932999 L0,23.1885004 C0,21.5151955 0.603492531,20.0771061 1.81645277,18.8687027 C3.02343783,17.6598739 4.46857624,17.0588623 6.14760001,17.0588623 C7.73059421,17.0588623 9.12878483,17.6598739 10.3417451,18.8733815 C11.5504373,20.0847623 12.1569174,21.5271052 12.1569174,23.1995593 L12.1569174,52.5287567 L14.8316612,52.5287567 L14.8316612,9.76803403 C14.8316612,8.09387849 15.4138138,6.67450424 16.5819603,5.51246336 C17.7415707,4.34659437 19.1628085,3.76684996 20.842259,3.76684996 C22.5182952,3.76684996 23.960446,4.32320043 25.1734063,5.44058015 C26.3833789,6.55753454 26.989859,7.99945203 26.989859,9.76803403 L26.989859,52.5287567 L29.6646028,52.5287567 L29.6646028,6.14112237 C29.6646028,4.46398942 30.2228547,3.02122124 31.3393586,1.81239247 C32.4571429,0.601436974 33.9039885,0 35.6734934,0 C37.3495296,0 38.7933876,0.601436974 40.0063479,1.81239247 C41.2150401,3.02122124 41.8232274,4.46398942 41.8232274,6.14112237 L41.8232274,52.5287567 L44.496264,52.5287567 L44.496264,15.1235453 C44.496264,13.444711 45.1010369,12.0036442 46.3127168,10.7948154 C47.5197018,9.5838599 48.9648403,8.98242293 50.6442908,8.98242293 C52.229419,8.98242293 53.6250488,9.5838599 54.8397163,10.7948154 C56.0462745,12.0036442 56.6548886,13.444711 56.6548886,15.1235453 L56.6548886,69.9751078 L58.8435094,69.9751078 L58.8435094,47.924829 C58.8435094,46.3408465 59.4474287,44.9440155 60.6582549,43.7377388 C61.8669472,42.5233805 63.3103784,41.9227942 64.989829,41.9227942 C66.666292,41.9227942 68.0853957,42.5025387 69.2531153,43.6637289 C70.4148598,44.8240684 71,46.2430173 71,47.9171728 L71,84.7158431 C71,88.801276 69.7541763,92.4707221 67.2693577,95.7220547 C64.7802711,98.9759393 61.6462926,101.158807 57.8687025,102.276612 L57.8687025,111 L11.6725016,111 L11.6725016,101.550549 Z" id="Fill-1" fill="#015985" mask="url(#mask-2)"></path>
                    </g>
                </g>
            </g>
        </g>
    </g>
</svg>