<?xml version="1.0" encoding="utf-8"?>
<!-- Generator: Adobe Illustrator 15.0.0, SVG Export Plug-In . SVG Version: 6.00 Build 0)  -->
<!DOCTYPE svg PUBLIC "-//W3C//DTD SVG 1.1//EN" "http://www.w3.org/Graphics/SVG/1.1/DTD/svg11.dtd">
<svg version="1.1" id="Layer_1" xmlns="http://www.w3.org/2000/svg" xmlns:xlink="http://www.w3.org/1999/xlink" x="0px" y="0px"
	 width="100px" height="100px" viewBox="0 0 100 100" enable-background="new 0 0 100 100" xml:space="preserve">
<path fill="#FFFFFF" d="M53.002,75.979c-3.521,0-6.762-1.769-8.233-2.707c-1.454-0.927-2.576-1.724-3.764-2.566
	c-1.893-1.341-3.849-2.729-7.619-4.996c-1.656-0.996-2.191-3.145-1.195-4.801c0.996-1.654,3.146-2.19,4.8-1.194
	c3.996,2.402,6.156,3.934,8.061,5.285c1.116,0.791,2.17,1.538,3.48,2.374c2.065,1.318,4.206,1.906,5.321,1.469
	c0.815-0.32,1.312-1.411,1.602-2.384c-0.304-0.817-2.357-4.779-15.649-15.014c-11.249-8.661-21.794-1.532-32.959,6.017L5.781,58.18
	c-1.602,1.081-3.775,0.658-4.856-0.944c-1.08-1.602-0.657-3.775,0.944-4.855l1.058-0.715c11.537-7.8,25.896-17.507,41.146-5.764
	c17.546,13.51,19.139,18.551,18.246,21.986c-1.232,4.737-3.894,6.676-5.908,7.467C55.277,75.799,54.125,75.979,53.002,75.979z"/>
<path fill="#FFFFFF" d="M47.979,97.258c-0.459,0-0.918-0.09-1.35-0.271L15.592,84.008l-11,2.477
	c-1.884,0.422-3.756-0.761-4.181-2.646c-0.424-1.885,0.76-3.756,2.645-4.181l12.088-2.721c0.708-0.16,1.448-0.095,2.118,0.186
	l30.788,12.874c16.062-6.015,41.17-15.643,44.014-17.322c0.48-0.285,1.143-2.12,0.499-3.717c-0.608-1.511-2.262-1.961-4.911-1.334
	c-10.552,2.494-33.719,8.193-33.952,8.25c-1.874,0.462-3.771-0.684-4.233-2.561c-0.462-1.876,0.686-3.771,2.561-4.232
	c0.233-0.058,23.433-5.765,34.015-8.266c7.259-1.715,11.481,1.731,13.01,5.529c1.854,4.6,0.314,10.141-3.43,12.353
	C91.21,81.306,53.49,95.435,49.205,97.036C48.809,97.185,48.394,97.258,47.979,97.258z"/>
<g>
	<path fill="#FFFFFF" d="M96.063,36.818c0,0.973-0.806,1.778-1.778,1.778H44.504c-0.973,0-1.778-0.805-1.778-1.778V4.816
		c0-0.973,0.805-1.778,1.778-1.778h49.781c0.973,0,1.778,0.805,1.778,1.778V36.818z M92.508,13.706
		c-3.917,0-7.111-3.195-7.111-7.112H53.394c0,3.917-3.195,7.112-7.112,7.112v14.223c3.917,0,7.112,3.195,7.112,7.112h32.003
		c0-3.917,3.194-7.112,7.111-7.112V13.706z"/>
	<path fill="#FFFFFF" d="M69.841,9.837c-4.938,0-8.939,4.916-8.939,10.98c0,6.064,4.002,10.98,8.939,10.98s8.94-4.916,8.94-10.98
		C78.781,14.753,74.778,9.837,69.841,9.837z M70.814,25.9v1.35c0,0.139-0.107,0.247-0.247,0.247h-1.041
		c-0.131,0-0.246-0.108-0.246-0.247V25.9c-1.805-0.254-2.792-1.334-2.83-1.38c-0.077-0.092-0.084-0.224-0.016-0.316l0.794-1.041
		c0.039-0.054,0.108-0.085,0.178-0.092c0.069-0.008,0.14,0.015,0.186,0.069c0.016,0.008,1.095,1.042,2.459,1.042
		c0.756,0,1.573-0.401,1.573-1.272c0-0.74-0.91-1.103-1.95-1.519c-1.389-0.547-3.115-1.241-3.115-3.176
		c0-1.418,1.109-2.591,2.722-2.899v-1.388c0-0.139,0.115-0.247,0.246-0.247h1.041c0.14,0,0.247,0.107,0.247,0.247v1.356
		c1.565,0.178,2.397,1.026,2.429,1.057c0.077,0.084,0.093,0.201,0.038,0.293l-0.624,1.125c-0.039,0.07-0.101,0.116-0.178,0.124
		c-0.077,0.015-0.146-0.008-0.208-0.054c-0.008-0.008-0.941-0.833-2.097-0.833c-0.979,0-1.658,0.486-1.658,1.188
		c0,0.817,0.94,1.18,2.036,1.604c1.418,0.547,3.021,1.171,3.021,3.03C73.574,24.39,72.449,25.631,70.814,25.9z"/>
</g>
</svg>
