
<svg width="87px" height="65px" viewBox="0 0 87 65" version="1.1" xmlns="http://www.w3.org/2000/svg" xmlns:xlink="http://www.w3.org/1999/xlink">
    <!-- Generator: Sketch 48.2 (47327) - http://www.bohemiancoding.com/sketch -->
    <desc>Created with Sketch.</desc>
    <defs>
        <polygon id="path-1" points="0 0 87 0 87 65 0 65"></polygon>
    </defs>
    <g id="Options-Round-2" stroke="none" stroke-width="1" fill="none" fill-rule="evenodd" opacity="0.1">
        <g id="Round-2:-Mobile-Portrait:-Get-Involved" transform="translate(-23.000000, -3699.000000)">
            <g id="Online-Engagement-Copy" transform="translate(-3.000000, 3304.000000)">
                <g id="Group-4" transform="translate(26.000000, 382.000000)">
                    <g id="Envelope" transform="translate(0.000000, 13.000000)">
                        <mask id="mask-2" fill="white">
                            <use xlink:href="#path-1"></use>
                        </mask>
                        <g id="Clip-2"></g>
                        <path d="M10.8751458,59.5825586 C10.3257311,59.5825586 9.8264752,59.4245209 9.32371988,59.2711313 L32.900728,32.4302775 L41.732191,39.9684461 C42.2396122,40.4088601 42.8718475,40.625 43.5005832,40.625 C44.129319,40.625 44.7603878,40.4088601 45.267809,39.9684461 L54.099272,32.4302775 L77.6762801,59.2711313 C77.1758578,59.4245209 76.6754354,59.5825586 76.1260207,59.5825586 L10.8751458,59.5825586 Z M5.65045654,55.2248999 C5.57813443,54.870477 5.43698966,54.542781 5.43698966,54.1674414 L5.43698966,10.8325586 C5.43698966,10.2724542 5.60029765,9.76464173 5.7589397,9.25682923 L28.7702023,28.903479 L5.65045654,55.2248999 Z M76.1260207,5.41627932 C76.4852983,5.41627932 76.8037488,5.55340031 77.1443627,5.62196081 L43.5005832,34.3511334 L9.85563734,5.62196081 C10.1962512,5.55340031 10.5135353,5.41627932 10.8751458,5.41627932 L76.1260207,5.41627932 Z M58.2251317,28.9081271 L81.2445598,9.25682923 C81.4043683,9.76464173 81.5630103,10.2724542 81.5630103,10.8325586 L81.5630103,54.1674414 C81.5630103,54.542781 81.4195326,54.8762872 81.343711,55.2307101 L58.2251317,28.9081271 Z M76.1260207,0 L10.8751458,0 C4.87007763,0 0,4.84920266 0,10.8325586 L0,54.1674414 C0,60.1507973 4.87007763,65 10.8751458,65 L76.1260207,65 C82.1299224,65 87,60.1507973 87,54.1674414 L87,10.8325586 C87,4.84920266 82.1299224,0 76.1260207,0 Z" id="Fill-1" fill="#FFFFFF" mask="url(#mask-2)"></path>
                    </g>
                </g>
            </g>
        </g>
    </g>
</svg>