<svg width="97" height="94" viewBox="0 0 97 94" xmlns="http://www.w3.org/2000/svg" xmlns:xlink="http://www.w3.org/1999/xlink"><defs><path id="a" d="M0 0h96.753v74.416H0z"/></defs><g fill="none" fill-rule="evenodd" opacity=".1"><g><mask id="b" fill="#fff"><use xlink:href="#a"/></mask><path d="M90.753 0H6C2.687 0 0 3.114 0 6.955v60.507c0 3.841 2.687 6.954 6 6.954h84.753c3.313 0 6-3.113 6-6.954V6.955c0-3.841-2.687-6.955-6-6.955m-.267 6c.107.147.267.466.267.955v60.507c0 .488-.16.807-.267.954H6.266C6.16 68.269 6 67.95 6 67.462V6.955c0-.489.16-.808.267-.955h84.219" fill="#FFF" mask="url(#b)"/></g><path d="M0 54.24h96.753" stroke="#FFF" stroke-width="6"/><path d="M52.177 63a3.667 3.667 0 1 1-7.335 0 3.667 3.667 0 0 1 7.335 0" fill="#FFF"/><path d="M35.676 71.167c0 5.5-5.667 11.417-11.417 11.417M60.487 71.167c0 5.5 5.667 11.417 11.417 11.417M84.01 86.834c0 2.301-1.66 4.166-3.708 4.166h-63.25c-2.048 0-3.71-1.865-3.71-4.166 0-2.302 1.662-4.167 3.71-4.167h63.25c2.048 0 3.708 1.865 3.708 4.167z" stroke="#FFF" stroke-width="6"/></g></svg>