<svg width="89" height="89" viewBox="0 0 89 89" xmlns="http://www.w3.org/2000/svg" xmlns:xlink="http://www.w3.org/1999/xlink"><defs><path id="a" d="M0 0h89v89H0z"/></defs><g fill="none" fill-rule="evenodd" opacity=".1"><mask id="b" fill="#fff"><use xlink:href="#a"/></mask><path d="M74.328 73.396a41.282 41.282 0 0 1-13.905 9.473 41.536 41.536 0 0 1-6.725 2.14c2.458-2.243 4.753-5.424 6.746-9.546 1.583-3.273 2.863-6.908 3.844-10.766 7.413.785 12.28 1.88 14.931 2.61a41.91 41.91 0 0 1-4.89 6.09zm-58.737.933a41.925 41.925 0 0 1-5.824-7.018c2.65-.73 7.52-1.829 14.946-2.614 1.083 4.263 2.524 8.25 4.334 11.765 1.878 3.647 3.996 6.496 6.247 8.55C27.93 83.35 21.134 79.7 15.591 74.33zm-.92-58.726a41.265 41.265 0 0 1 13.904-9.472 41.46 41.46 0 0 1 6.726-2.14c-2.458 2.242-4.752 5.423-6.745 9.546-1.583 3.272-2.863 6.908-3.844 10.766-7.412-.784-12.279-1.88-14.93-2.61a41.99 41.99 0 0 1 4.89-6.09zm58.737-.93a41.866 41.866 0 0 1 5.823 7.016c-2.65.731-7.52 1.828-14.945 2.614-1.082-4.262-2.523-8.249-4.333-11.763-1.879-3.648-3.996-6.496-6.249-8.551C61.07 5.65 67.865 9.302 73.408 14.672zm-6.722 28.344c-.09-5.388-.659-10.745-1.717-15.788 8.2-.88 13.314-2.137 15.865-2.9 3.157 5.67 4.94 12.037 5.174 18.688H66.686zm.005 2.967H86.01c-.23 6.63-2.016 13-5.186 18.684-2.556-.763-7.67-2.019-15.862-2.898 1.06-5.05 1.64-10.405 1.729-15.786zM45.98 60.775V45.984h17.747c-.09 5.419-.683 10.653-1.725 15.498-4.513-.396-9.83-.669-16.021-.707zm0 25.118v-22.15c5.892.038 10.984.295 15.325.668-.928 3.534-2.108 6.82-3.529 9.758-3.268 6.76-7.497 10.931-11.795 11.724zm-2.963-22.15v22.155c-1.643-.295-3.277-1.082-4.875-2.352-2.374-1.887-4.548-4.728-6.462-8.444-1.627-3.158-2.962-6.768-3.99-10.69 4.341-.373 9.434-.631 15.327-.669zm-17.74-17.759h17.74v14.791c-6.196.038-11.516.312-16.03.708-1.037-4.832-1.618-10.07-1.71-15.499zm-2.964 0c.089 5.387.659 10.744 1.716 15.787-8.201.88-13.315 2.138-15.865 2.901-3.157-5.67-4.94-12.038-5.173-18.688h19.322zm-.005-2.967H2.99c.231-6.632 2.017-13 5.187-18.685 2.556.763 7.668 2.019 15.862 2.898-1.06 5.05-1.64 10.405-1.73 15.787zm20.709-14.792v14.792H25.272c.09-5.42.683-10.655 1.725-15.499 4.512.395 9.83.669 16.021.707zm0-25.118v22.15c-5.891-.038-10.982-.295-15.323-.668.928-3.534 2.107-6.821 3.528-9.759C34.49 8.07 38.72 3.898 43.018 3.107zm2.964 22.15V3.103c1.642.295 3.276 1.082 4.874 2.352 2.375 1.887 4.549 4.728 6.462 8.445 1.627 3.158 2.962 6.768 3.99 10.689-4.34.373-9.434.63-15.326.668zm0 2.968c6.195-.038 11.516-.312 16.03-.707 1.037 4.83 1.618 10.069 1.71 15.499h-17.74V28.225zM75.47 12.54C66.829 4.168 55.662 0 44.51 0H44.5C32.877.003 21.272 4.53 12.544 13.537c-17.103 17.65-16.662 45.824.986 62.925C22.17 84.834 33.334 89 44.485 89h.015c11.621-.004 23.228-4.53 31.956-13.537 17.103-17.65 16.662-45.823-.986-62.923z" fill="#FFF" mask="url(#b)"/></g></svg>