<svg width="71" height="111" viewBox="0 0 71 111" xmlns="http://www.w3.org/2000/svg" xmlns:xlink="http://www.w3.org/1999/xlink"><defs><path id="a" d="M0 0h71v111H0z"/></defs><g fill="none" fill-rule="evenodd"><mask id="b" fill="#fff"><use xlink:href="#a"/></mask><path d="M11.673 101.55C8.163 100.247 5.338 98.067 3.2 95 1.067 91.933 0 88.499 0 84.694V23.19c0-1.674.603-3.112 1.816-4.32 1.207-1.21 2.653-1.81 4.332-1.81 1.583 0 2.98.6 4.194 1.814 1.208 1.212 1.815 2.654 1.815 4.327v29.329h2.675V9.768c0-1.674.582-3.093 1.75-4.256 1.16-1.165 2.58-1.745 4.26-1.745 1.676 0 3.118.556 4.331 1.674 1.21 1.117 1.817 2.558 1.817 4.327v42.76h2.675V6.142c0-1.677.558-3.12 1.674-4.329C32.457.602 33.904 0 35.673 0c1.677 0 3.12.601 4.333 1.812 1.209 1.21 1.817 2.652 1.817 4.33v46.387h2.673V15.124c0-1.68.605-3.12 1.817-4.33 1.207-1.21 2.652-1.812 4.331-1.812 1.585 0 2.981.602 4.196 1.813 1.206 1.209 1.815 2.65 1.815 4.329v54.851h2.189v-22.05c0-1.584.603-2.981 1.814-4.187 1.209-1.215 2.652-1.815 4.332-1.815 1.676 0 3.095.58 4.263 1.74C70.415 44.825 71 46.244 71 47.918v36.799c0 4.085-1.246 7.755-3.73 11.006-2.49 3.254-5.624 5.437-9.401 6.555V111H11.673v-9.45z" fill="#015985" mask="url(#b)"/></g></svg>