<svg xmlns="http://www.w3.org/2000/svg" width="100" height="100" viewBox="0 0 100 100"><path fill="#FFF" d="M53.002 75.979c-3.521 0-6.762-1.769-8.233-2.707-1.454-.927-2.576-1.724-3.764-2.566-1.893-1.341-3.849-2.729-7.619-4.996a3.498 3.498 0 1 1 3.605-5.995c3.996 2.402 6.156 3.934 8.061 5.285 1.116.791 2.17 1.538 3.48 2.374 2.065 1.318 4.206 1.906 5.321 1.469.815-.32 1.312-1.411 1.602-2.384-.304-.817-2.357-4.779-15.649-15.014-11.249-8.661-21.794-1.532-32.959 6.017l-1.066.718a3.497 3.497 0 1 1-3.912-5.799l1.058-.715c11.537-7.8 25.896-17.507 41.146-5.764 17.546 13.51 19.139 18.551 18.246 21.986-1.232 4.737-3.894 6.676-5.908 7.467a9.287 9.287 0 0 1-3.409.624z"/><path fill="#FFF" d="M47.979 97.258c-.459 0-.918-.09-1.35-.271L15.592 84.008l-11 2.477a3.499 3.499 0 1 1-1.536-6.827l12.088-2.721a3.487 3.487 0 0 1 2.118.186L48.05 89.997c16.062-6.015 41.17-15.643 44.014-17.322.48-.285 1.143-2.12.499-3.717-.608-1.511-2.262-1.961-4.911-1.334-10.552 2.494-33.719 8.193-33.952 8.25a3.499 3.499 0 0 1-1.672-6.793c.233-.058 23.433-5.765 34.015-8.266 7.259-1.715 11.481 1.731 13.01 5.529 1.854 4.6.314 10.141-3.43 12.353-4.413 2.609-42.133 16.738-46.418 18.339a3.478 3.478 0 0 1-1.226.222z"/><g fill="#FFF"><path d="M96.063 36.818a1.79 1.79 0 0 1-1.778 1.778H44.504a1.79 1.79 0 0 1-1.778-1.778V4.816a1.79 1.79 0 0 1 1.778-1.778h49.781a1.79 1.79 0 0 1 1.778 1.778v32.002zm-3.555-23.112c-3.917 0-7.111-3.195-7.111-7.112H53.394c0 3.917-3.195 7.112-7.112 7.112v14.223c3.917 0 7.112 3.195 7.112 7.112h32.003c0-3.917 3.194-7.112 7.111-7.112V13.706z"/><path d="M69.841 9.837c-4.938 0-8.939 4.916-8.939 10.98s4.002 10.98 8.939 10.98 8.94-4.916 8.94-10.98-4.003-10.98-8.94-10.98zm.973 16.063v1.35a.243.243 0 0 1-.247.247h-1.041a.248.248 0 0 1-.246-.247V25.9c-1.805-.254-2.792-1.334-2.83-1.38a.258.258 0 0 1-.016-.316l.794-1.041a.25.25 0 0 1 .178-.092.21.21 0 0 1 .186.069c.016.008 1.095 1.042 2.459 1.042.756 0 1.573-.401 1.573-1.272 0-.74-.91-1.103-1.95-1.519-1.389-.547-3.115-1.241-3.115-3.176 0-1.418 1.109-2.591 2.722-2.899v-1.388c0-.139.115-.247.246-.247h1.041c.14 0 .247.107.247.247v1.356c1.565.178 2.397 1.026 2.429 1.057a.245.245 0 0 1 .038.293l-.624 1.125a.23.23 0 0 1-.178.124.257.257 0 0 1-.208-.054c-.008-.008-.941-.833-2.097-.833-.979 0-1.658.486-1.658 1.188 0 .817.94 1.18 2.036 1.604 1.418.547 3.021 1.171 3.021 3.03 0 1.572-1.125 2.813-2.76 3.082z"/></g></svg>