<svg width="87" height="65" viewBox="0 0 87 65" xmlns="http://www.w3.org/2000/svg" xmlns:xlink="http://www.w3.org/1999/xlink"><defs><path id="a" d="M0 0h87v65H0z"/></defs><g fill="none" fill-rule="evenodd" opacity=".1"><mask id="b" fill="#fff"><use xlink:href="#a"/></mask><path d="M10.875 59.583c-.55 0-1.049-.158-1.551-.312L32.9 32.431l8.831 7.537a2.69 2.69 0 0 0 1.769.657c.628 0 1.26-.216 1.767-.657l8.831-7.538 23.577 26.841c-.5.154-1 .312-1.55.312h-65.25zM5.65 55.225c-.072-.355-.213-.682-.213-1.058V10.833c0-.56.163-1.068.322-1.576L28.77 28.903 5.65 55.225zM76.126 5.416c.36 0 .678.137 1.018.206l-33.643 28.73L9.856 5.621c.34-.069.658-.206 1.02-.206h65.25zm-17.9 23.492L81.244 9.257c.16.508.318 1.015.318 1.576v43.334c0 .376-.143.71-.22 1.064L58.226 28.908zM76.125 0h-65.25C4.87 0 0 4.85 0 10.833v43.334C0 60.151 4.87 65 10.875 65h65.251C82.13 65 87 60.15 87 54.167V10.833C87 4.849 82.13 0 76.126 0z" fill="#FFF" mask="url(#b)"/></g></svg>